<svg xmlns="http://www.w3.org/2000/svg" viewBox="0 0 680.56 119.32"><defs><style>.cls-1{fill:#fff;}</style></defs><title>logo-blancoAsset 6</title><g id="Layer_2" data-name="Layer 2"><g id="Layer_1-2" data-name="Layer 1"><path class="cls-1" d="M64.86,17.17a42.49,42.49,0,0,1,37.37,22.24h12.68l3.07-2.6a2,2,0,0,0,.43-2.5l-5.34-9.26a2,2,0,0,0-2.38-.87l-9.33,3.34-5.2-5.19L99.43,13a2,2,0,0,0-.88-2.37L89.27,5.27a2,2,0,0,0-2.5.44l-6.39,7.57-7.09-1.91L71.53,1.63a2,2,0,0,0-2-1.63H58.88a2,2,0,0,0-2,1.63l-1.76,9.75-7.09,1.9L41.69,5.71a2,2,0,0,0-2.5-.44l-9.28,5.36A2,2,0,0,0,29,13l3.32,9.33L27.2,27.51l-9.33-3.33a2,2,0,0,0-2.38.87l-5.34,9.26a2,2,0,0,0,.43,2.5l3.05,2.6H27.49A42.5,42.5,0,0,1,64.86,17.17Z"/><path class="cls-1" d="M114.87,80H102.22a42.53,42.53,0,0,1-74.71,0H13.64l-3,2.51a2,2,0,0,0-.44,2.5l5.35,9.27a2,2,0,0,0,2.38.87l9.32-3.35L32.36,97,29,106.3a2,2,0,0,0,.88,2.38l9.28,5.37a2,2,0,0,0,2.5-.44L48,106l7.09,1.9,1.76,9.75a2,2,0,0,0,2,1.63h10.7a2,2,0,0,0,1.95-1.63l1.76-9.75,7.09-1.9,6.39,7.57a2,2,0,0,0,2.5.44l9.29-5.37a2,2,0,0,0,.87-2.38L96,97l5.19-5.19,9.33,3.36a2,2,0,0,0,2.38-.87L118.28,85a2,2,0,0,0-.44-2.49Z"/><rect class="cls-1" x="82.03" y="57.89" width="41.52" height="4"/><rect class="cls-1" x="48.06" y="57.89" width="33.97" height="4"/><rect class="cls-1" x="5" y="57.89" width="43.06" height="4"/><path class="cls-1" d="M38.28,70.16H17.43v4H38.51V70.59C38.44,70.44,38.36,70.3,38.28,70.16Z"/><rect class="cls-1" x="91.6" y="70.16" width="19.74" height="4"/><rect class="cls-1" x="17.43" y="46.06" width="20.33" height="4"/><path class="cls-1" d="M90.91,46.06v2.32a.36.36,0,0,1,.07.1,7.67,7.67,0,0,1,.23.78c.13.27.25.53.39.79h18.87v-4Z"/><circle class="cls-1" cx="111.5" cy="48.05" r="3"/><path class="cls-1" d="M111.5,52.61a4.56,4.56,0,1,1,4.55-4.56A4.56,4.56,0,0,1,111.5,52.61Zm0-6a1.45,1.45,0,1,0,1.44,1.44A1.45,1.45,0,0,0,111.5,46.61Z"/><circle class="cls-1" cx="64.71" cy="59.99" r="7.7"/><path class="cls-1" d="M64.71,71.07A11.08,11.08,0,1,1,75.79,60,11.09,11.09,0,0,1,64.71,71.07Zm0-15.41A4.33,4.33,0,1,0,69.05,60,4.33,4.33,0,0,0,64.71,55.66Z"/><circle class="cls-1" cx="17.24" cy="48.05" r="3"/><path class="cls-1" d="M17.24,52.61a4.56,4.56,0,1,1,4.55-4.56A4.56,4.56,0,0,1,17.24,52.61Zm0-6a1.45,1.45,0,1,0,1.45,1.44A1.45,1.45,0,0,0,17.24,46.61Z"/><circle class="cls-1" cx="111.5" cy="72.16" r="3"/><path class="cls-1" d="M111.5,76.71a4.55,4.55,0,1,1,4.55-4.55A4.55,4.55,0,0,1,111.5,76.71Zm0-6a1.44,1.44,0,1,0,1.44,1.44A1.44,1.44,0,0,0,111.5,70.72Z"/><circle class="cls-1" cx="17.69" cy="72.16" r="3"/><path class="cls-1" d="M17.69,76.71a4.55,4.55,0,1,1,4.55-4.55A4.55,4.55,0,0,1,17.69,76.71Zm0-6a1.44,1.44,0,1,0,1.44,1.44A1.44,1.44,0,0,0,17.69,70.72Z"/><circle class="cls-1" cx="123.32" cy="59.55" r="3"/><path class="cls-1" d="M123.32,64.11a4.56,4.56,0,1,1,4.55-4.56A4.56,4.56,0,0,1,123.32,64.11Zm0-6a1.45,1.45,0,1,0,1.45,1.44A1.45,1.45,0,0,0,123.32,58.11Z"/><circle class="cls-1" cx="4.55" cy="59.3" r="3"/><path class="cls-1" d="M4.55,63.85A4.55,4.55,0,1,1,9.1,59.3,4.55,4.55,0,0,1,4.55,63.85Zm0-6A1.44,1.44,0,1,0,6,59.3,1.45,1.45,0,0,0,4.55,57.86Z"/><path class="cls-1" d="M93,49.63a27.2,27.2,0,0,0-1.44-2.4L93.43,46A25.2,25.2,0,0,1,95,48.57Z"/><path class="cls-1" d="M38,50.06l-4.28-1.68a33.58,33.58,0,0,1,61.36-1.76l-4.16,1.93A29,29,0,0,0,38,50.06Z"/><path class="cls-1" d="M32.69,61.13c0-.37,0-.74,0-1.11,0-.54,0-1.09,0-1.63l2.29.12c0,.5,0,1,0,1.51,0,.34,0,.69,0,1Z"/><path class="cls-1" d="M35.46,73c-.24-.5-.46-1-.67-1.53l2.12-.87c.2.48.4.95.62,1.41Z"/><path class="cls-1" d="M64.78,91.92a33.32,33.32,0,0,1-30.4-19.3l4.17-1.9a29,29,0,0,0,52.74-.65l4.23,1.79A33.18,33.18,0,0,1,64.78,91.92Z"/><path class="cls-1" d="M394.63,27.58a6.85,6.85,0,0,1-6.92-6.92,6.85,6.85,0,0,1,2-5,6.92,6.92,0,0,1,9.83,0,6.81,6.81,0,0,1,2,5,6.86,6.86,0,0,1-6.92,6.92Z"/><polygon class="cls-1" points="309.27 16.5 297.31 27.43 289.63 23.32 297.9 10.41 309.27 16.5"/><path class="cls-1" d="M357.82,62.39l18.46,27.52H363.16l-12-17.71L339.37,89.91H326.25L344.7,62.39,325.5,33.7h13.12l12.59,18.87L363.9,33.7H377Z"/><rect class="cls-1" x="389.13" y="33.59" width="10.99" height="56.32"/><path class="cls-1" d="M495.16,37.32a24.48,24.48,0,0,1,8,8.69,23.94,23.94,0,0,1,3,11.79V89.91h-11V57.8a13,13,0,0,0-1.07-5.23,13.86,13.86,0,0,0-7.25-7.25,13,13,0,0,0-5.23-1.07,13.36,13.36,0,0,0-5.28,1.07A13.7,13.7,0,0,0,472,48.25,14.08,14.08,0,0,0,469,52.57,13,13,0,0,0,468,57.8V89.91H457V57.8a13,13,0,0,0-1.06-5.23A14.08,14.08,0,0,0,453,48.25a13.82,13.82,0,0,0-4.32-2.93,13,13,0,0,0-5.23-1.07,13.36,13.36,0,0,0-5.28,1.07,13.7,13.7,0,0,0-4.37,2.93,14.05,14.05,0,0,0-2.93,4.32,13,13,0,0,0-1.07,5.23V89.91h-11V33.27h11v4a26,26,0,0,1,6.45-3,24.61,24.61,0,0,1,20.75,3,23.71,23.71,0,0,1,5.55,5.12A24.69,24.69,0,0,1,468,37.32a26,26,0,0,1,6.45-3,24.61,24.61,0,0,1,20.75,3Z"/><path class="cls-1" d="M230.52,37.32a24.48,24.48,0,0,1,8,8.69,23.94,23.94,0,0,1,3,11.79V89.91h-11V57.8a13,13,0,0,0-1.07-5.23,13.86,13.86,0,0,0-7.25-7.25A13,13,0,0,0,217,44.25a13.36,13.36,0,0,0-5.28,1.07,13.7,13.7,0,0,0-4.37,2.93,13.88,13.88,0,0,0-2.93,4.32,12.85,12.85,0,0,0-1.07,5.23V89.91h-11V57.8a13,13,0,0,0-1.06-5.23,14.08,14.08,0,0,0-2.94-4.32A13.82,13.82,0,0,0,184,45.32a13,13,0,0,0-5.22-1.07,13.36,13.36,0,0,0-5.28,1.07,13.75,13.75,0,0,0-4.38,2.93,14.05,14.05,0,0,0-2.93,4.32,13,13,0,0,0-1.07,5.23V89.91h-11V33.27h11v4a25.87,25.87,0,0,1,6.46-3,24.56,24.56,0,0,1,20.74,3,23.71,23.71,0,0,1,5.55,5.12,24.69,24.69,0,0,1,5.44-5.12,26,26,0,0,1,6.45-3,24.61,24.61,0,0,1,20.75,3Z"/><path class="cls-1" d="M630.06,72.48a12.42,12.42,0,0,1,1.54,3,9.79,9.79,0,0,1,.49,3.47A10.19,10.19,0,0,1,631,83.26a11.85,11.85,0,0,1-2.59,3.44A11.4,11.4,0,0,1,624.66,89a11.82,11.82,0,0,1-4.55.74A12.78,12.78,0,0,1,614.05,88a10.84,10.84,0,0,1-4.1-4.27l6-4.21a3.88,3.88,0,0,0,1.54,2.14,4.59,4.59,0,0,0,2.8.87,4.68,4.68,0,0,0,3.19-1,3.32,3.32,0,0,0,1.36-2.7,2.37,2.37,0,0,0-.07-.7v-.14a.64.64,0,0,1-.07-.24.53.53,0,0,0-.07-.25,4,4,0,0,0-1.82-2,2.74,2.74,0,0,0-.63-.28l.07-.07c-.65-.37-1.38-.74-2.17-1.09s-1.6-.72-2.42-1.12-1.62-.81-2.41-1.26A13.35,13.35,0,0,1,613,70.1V70l-.21-.21a10.41,10.41,0,0,1-2.31-3.26,8.74,8.74,0,0,1-.77-4,9.34,9.34,0,0,1,1-3.92,10.29,10.29,0,0,1,2.42-3.16,11.53,11.53,0,0,1,3.54-2.1,11.34,11.34,0,0,1,4.34-.7,12.46,12.46,0,0,1,5.43,1.47,10.28,10.28,0,0,1,3.82,3.58l-5.89,4.06A3.55,3.55,0,0,0,623,60.5a4.07,4.07,0,0,0-2.14-.56,4.25,4.25,0,0,0-2.77.77,2.46,2.46,0,0,0-1.15,2,1.15,1.15,0,0,0,.07.49,2.4,2.4,0,0,0,.7,1.33,4.09,4.09,0,0,0,1.4.91c.89.52,1.9,1,3,1.58s2.3,1.13,3.46,1.78a11.07,11.07,0,0,1,2.53,1.62l.35.35A14.89,14.89,0,0,1,630.06,72.48Z"/><path class="cls-1" d="M664.37,55.56a14.66,14.66,0,0,1,3.71,3.89l-3.71,3.22L663,63.94a8.42,8.42,0,0,0-2.85-2.81,7.4,7.4,0,0,0-6.94-.35,8.39,8.39,0,0,0-2.56,1.89,9.29,9.29,0,0,0-2.37,6.24v20.8h-6.58V52.87h6.58v2.69a14.06,14.06,0,0,1,3.78-2,13.29,13.29,0,0,1,8.57,0A14.06,14.06,0,0,1,664.37,55.56Z"/><path class="cls-1" d="M673.85,39.75h6.71v50h-6.71Z"/><path class="cls-1" d="M312.46,33.94v54.6h-10l-1.83-6.27a19.14,19.14,0,0,1-7.82,5.7,25.51,25.51,0,0,1-9.66,1.94,29.33,29.33,0,0,1-11.43-2.22,29.68,29.68,0,0,1-9.29-6.1,29.17,29.17,0,0,1-6.3-9.12,28,28,0,0,1,0-22.34A29,29,0,0,1,262.4,41a29.42,29.42,0,0,1,20.72-8.32,25.77,25.77,0,0,1,9.41,1.76A22,22,0,0,1,300.6,40l1.83-6ZM283.12,80.11a15.7,15.7,0,0,0,6.72-1.49,16.94,16.94,0,0,0,5.5-4,19.46,19.46,0,0,0,3.67-6A20.39,20.39,0,0,0,299,54a19.41,19.41,0,0,0-3.67-6,17.12,17.12,0,0,0-5.5-4.05,16,16,0,0,0-13.44,0A17,17,0,0,0,270.9,48a19.22,19.22,0,0,0-3.67,6,20.39,20.39,0,0,0,0,14.59,19.27,19.27,0,0,0,3.67,6,16.84,16.84,0,0,0,5.5,4A15.63,15.63,0,0,0,283.12,80.11Z"/><path class="cls-1" d="M574.8,33.94v54.6h-10L563,82.27a19.17,19.17,0,0,1-7.83,5.7,25.51,25.51,0,0,1-9.66,1.94,29.1,29.1,0,0,1-27-17.44,28,28,0,0,1,0-22.34A28.92,28.92,0,0,1,524.74,41a29.42,29.42,0,0,1,20.72-8.32,25.86,25.86,0,0,1,9.42,1.76A22.13,22.13,0,0,1,563,40l1.83-6ZM545.46,80.11a15.71,15.71,0,0,0,6.73-1.49,16.94,16.94,0,0,0,5.5-4,19.65,19.65,0,0,0,3.67-6,20.53,20.53,0,0,0,0-14.59,19.6,19.6,0,0,0-3.67-6,17.12,17.12,0,0,0-5.5-4.05,16,16,0,0,0-13.45,0,17.12,17.12,0,0,0-5.5,4.05,19.41,19.41,0,0,0-3.67,6,20.53,20.53,0,0,0,0,14.59,19.46,19.46,0,0,0,3.67,6,16.94,16.94,0,0,0,5.5,4A15.7,15.7,0,0,0,545.46,80.11Z"/></g></g></svg>